<svg width="169" height="59" viewBox="0 0 169 59" fill="none" xmlns="http://www.w3.org/2000/svg">
<g filter="url(#filter0_d)">
<rect x="8" y="8" width="153" height="43" rx="12" fill="#5EFC8D"/>
<path d="M33.4375 36V34.6328L34.6484 34.3984V26.2344L33.4375 26V24.625H38.8281C39.7031 24.625 40.4531 24.7604 41.0781 25.0312C41.7031 25.3021 42.1823 25.6901 42.5156 26.1953C42.8542 26.7005 43.0234 27.3073 43.0234 28.0156C43.0234 28.6823 42.8568 29.2786 42.5234 29.8047C42.1901 30.3307 41.7266 30.7448 41.1328 31.0469C40.5391 31.349 39.8542 31.5026 39.0781 31.5078H36.9297V34.3984L38.1484 34.6328V36H33.4375ZM40.7578 36L38.8438 31.0859L40.8984 30.5781L42.5547 34.4062L43.5234 34.6328V36H40.7578ZM36.9297 29.75H38.7891C39.4453 29.75 39.9349 29.612 40.2578 29.3359C40.5859 29.0547 40.75 28.6484 40.75 28.1172C40.75 27.5911 40.5885 27.1719 40.2656 26.8594C39.9427 26.5417 39.4635 26.3828 38.8281 26.3828H36.9297V29.75ZM48.5391 36.1641C47.7318 36.1641 47.026 35.987 46.4219 35.6328C45.8177 35.2734 45.349 34.7812 45.0156 34.1562C44.6875 33.5312 44.5234 32.8177 44.5234 32.0156V31.7031C44.5234 30.8646 44.6797 30.1224 44.9922 29.4766C45.3047 28.8255 45.7448 28.3151 46.3125 27.9453C46.8854 27.5703 47.5599 27.3854 48.3359 27.3906C49.1016 27.3906 49.7448 27.5417 50.2656 27.8438C50.7865 28.1458 51.1823 28.5807 51.4531 29.1484C51.724 29.7161 51.8594 30.4036 51.8594 31.2109V32.4531H46.8906L46.875 32.5C46.9062 32.8698 46.9974 33.2005 47.1484 33.4922C47.3047 33.7786 47.5234 34.0052 47.8047 34.1719C48.0859 34.3333 48.4271 34.4141 48.8281 34.4141C49.2448 34.4141 49.6328 34.362 49.9922 34.2578C50.3568 34.1484 50.7109 33.9896 51.0547 33.7812L51.6719 35.1875C51.3229 35.4688 50.8828 35.7031 50.3516 35.8906C49.8255 36.0729 49.2214 36.1641 48.5391 36.1641ZM46.9062 30.9453H49.7266V30.7422C49.7266 30.3984 49.6797 30.1042 49.5859 29.8594C49.4974 29.6094 49.3516 29.4167 49.1484 29.2812C48.9505 29.1458 48.6927 29.0781 48.375 29.0781C48.0729 29.0781 47.8177 29.1589 47.6094 29.3203C47.401 29.4766 47.237 29.6927 47.1172 29.9688C47.0026 30.2448 46.9245 30.5573 46.8828 30.9062L46.9062 30.9453ZM52.8281 36V34.6328L53.9297 34.3984V29.1562L52.7109 28.9219V27.5469H56.0469L56.1406 28.6641C56.4115 28.2578 56.75 27.9453 57.1562 27.7266C57.5677 27.5026 58.0417 27.3906 58.5781 27.3906C59.1198 27.3906 59.5833 27.5104 59.9688 27.75C60.3594 27.9896 60.651 28.3516 60.8438 28.8359C61.1042 28.3828 61.4427 28.0286 61.8594 27.7734C62.276 27.5182 62.7656 27.3906 63.3281 27.3906C64.1615 27.3906 64.8177 27.6745 65.2969 28.2422C65.7812 28.8099 66.0234 29.6745 66.0234 30.8359V34.3984L67.125 34.6328V36H62.7578V34.6328L63.7422 34.3984V30.8281C63.7422 30.2031 63.638 29.7708 63.4297 29.5312C63.2266 29.2865 62.9297 29.1641 62.5391 29.1641C62.1849 29.1641 61.8854 29.2656 61.6406 29.4688C61.3958 29.6667 61.2188 29.9297 61.1094 30.2578V34.3984L62.0312 34.6328V36H57.9141V34.6328L58.8359 34.3984V30.8281C58.8359 30.2188 58.7318 29.7891 58.5234 29.5391C58.3203 29.2891 58.0182 29.1641 57.6172 29.1641C57.2943 29.1641 57.0156 29.2292 56.7812 29.3594C56.5469 29.4896 56.3542 29.6771 56.2031 29.9219V34.3984L57.1875 34.6328V36H52.8281ZM71.8516 36.1641C71.0182 36.1641 70.3021 35.9818 69.7031 35.6172C69.1042 35.2526 68.6458 34.7474 68.3281 34.1016C68.0104 33.4505 67.8516 32.7031 67.8516 31.8594V31.6953C67.8516 30.8568 68.0104 30.1146 68.3281 29.4688C68.6458 28.8177 69.1016 28.3099 69.6953 27.9453C70.2943 27.5755 71.0078 27.3906 71.8359 27.3906C72.6745 27.3906 73.3906 27.5755 73.9844 27.9453C74.5781 28.3099 75.0339 28.8151 75.3516 29.4609C75.6693 30.1068 75.8281 30.8516 75.8281 31.6953V31.8594C75.8281 32.7031 75.6693 33.4505 75.3516 34.1016C75.0339 34.7474 74.5781 35.2526 73.9844 35.6172C73.3906 35.9818 72.6797 36.1641 71.8516 36.1641ZM71.8516 34.4141C72.2474 34.4141 72.5703 34.3073 72.8203 34.0938C73.0703 33.8802 73.2552 33.5833 73.375 33.2031C73.4948 32.8177 73.5547 32.3698 73.5547 31.8594V31.6953C73.5547 31.1953 73.4948 30.7552 73.375 30.375C73.2552 29.9896 73.0677 29.6901 72.8125 29.4766C72.5625 29.2578 72.237 29.1484 71.8359 29.1484C71.4453 29.1484 71.1224 29.2578 70.8672 29.4766C70.612 29.6901 70.4245 29.9896 70.3047 30.375C70.1901 30.7552 70.1328 31.1953 70.1328 31.6953V31.8594C70.1328 32.3698 70.1901 32.8177 70.3047 33.2031C70.4245 33.5885 70.612 33.888 70.8672 34.1016C71.1224 34.3099 71.4505 34.4141 71.8516 34.4141ZM79.75 36L77.1953 29.0625L76.2812 28.9219V27.5469H80.3828V28.9141L79.4922 29.0703L80.7656 32.9062L80.9609 33.5625H81.0078L81.2266 32.9062L82.625 29.0781L81.5859 28.9141V27.5469H85.6797V28.9219L84.7422 29.0781L82.0703 36H79.75ZM90.2422 36.1641C89.4349 36.1641 88.7292 35.987 88.125 35.6328C87.5208 35.2734 87.0521 34.7812 86.7188 34.1562C86.3906 33.5312 86.2266 32.8177 86.2266 32.0156V31.7031C86.2266 30.8646 86.3828 30.1224 86.6953 29.4766C87.0078 28.8255 87.4479 28.3151 88.0156 27.9453C88.5885 27.5703 89.263 27.3854 90.0391 27.3906C90.8047 27.3906 91.4479 27.5417 91.9688 27.8438C92.4896 28.1458 92.8854 28.5807 93.1562 29.1484C93.4271 29.7161 93.5625 30.4036 93.5625 31.2109V32.4531H88.5938L88.5781 32.5C88.6094 32.8698 88.7005 33.2005 88.8516 33.4922C89.0078 33.7786 89.2266 34.0052 89.5078 34.1719C89.7891 34.3333 90.1302 34.4141 90.5312 34.4141C90.9479 34.4141 91.3359 34.362 91.6953 34.2578C92.0599 34.1484 92.4141 33.9896 92.7578 33.7812L93.375 35.1875C93.026 35.4688 92.5859 35.7031 92.0547 35.8906C91.5286 36.0729 90.9245 36.1641 90.2422 36.1641ZM88.6094 30.9453H91.4297V30.7422C91.4297 30.3984 91.3828 30.1042 91.2891 29.8594C91.2005 29.6094 91.0547 29.4167 90.8516 29.2812C90.6536 29.1458 90.3958 29.0781 90.0781 29.0781C89.776 29.0781 89.5208 29.1589 89.3125 29.3203C89.1042 29.4766 88.9401 29.6927 88.8203 29.9688C88.7057 30.2448 88.6276 30.5573 88.5859 30.9062L88.6094 30.9453ZM94.5625 36V34.6328L95.7734 34.3984V26.2344L94.5625 26V24.625H99.2734V26L98.0547 26.2344V29.5156H102.695V26.2344L101.477 26V24.625H102.695H104.969H106.188V26L104.969 26.2344V34.3984L106.188 34.6328V36H101.477V34.6328L102.695 34.3984V31.2734H98.0547V34.3984L99.2734 34.6328V36H94.5625ZM109.945 36.1641C109.107 36.1641 108.44 35.9401 107.945 35.4922C107.451 35.0391 107.203 34.4245 107.203 33.6484C107.203 33.1172 107.346 32.651 107.633 32.25C107.924 31.849 108.352 31.5339 108.914 31.3047C109.482 31.0755 110.18 30.9609 111.008 30.9609H112.125V30.3359C112.125 29.9297 112.005 29.6016 111.766 29.3516C111.531 29.0964 111.177 28.9688 110.703 28.9688C110.458 28.9688 110.237 29 110.039 29.0625C109.846 29.1198 109.672 29.2031 109.516 29.3125L109.336 30.4297H107.695L107.664 28.2344C108.107 27.9844 108.586 27.7812 109.102 27.625C109.617 27.4688 110.193 27.3906 110.828 27.3906C111.932 27.3906 112.805 27.6484 113.445 28.1641C114.086 28.6745 114.406 29.4062 114.406 30.3594V33.8438C114.406 33.9583 114.406 34.0729 114.406 34.1875C114.411 34.2969 114.422 34.4036 114.438 34.5078L115.32 34.6328V36H112.492C112.435 35.8542 112.378 35.6979 112.32 35.5312C112.263 35.3646 112.221 35.1979 112.195 35.0312C111.924 35.375 111.604 35.651 111.234 35.8594C110.87 36.0625 110.44 36.1641 109.945 36.1641ZM110.555 34.4766C110.872 34.4766 111.174 34.4062 111.461 34.2656C111.747 34.1198 111.969 33.9297 112.125 33.6953V32.3594H111C110.5 32.3594 110.12 32.474 109.859 32.7031C109.604 32.9323 109.477 33.2083 109.477 33.5312C109.477 33.8333 109.57 34.0677 109.758 34.2344C109.951 34.3958 110.216 34.4766 110.555 34.4766ZM121.062 36.1641C120.542 36.1641 120.096 36.0625 119.727 35.8594C119.357 35.651 119.047 35.3516 118.797 34.9609L118.633 36H116.664V25.4219L115.453 25.1875V23.8125H118.938V28.4453C119.182 28.1068 119.482 27.8464 119.836 27.6641C120.195 27.4818 120.612 27.3906 121.086 27.3906C121.768 27.3906 122.346 27.5755 122.82 27.9453C123.299 28.3099 123.664 28.8255 123.914 29.4922C124.164 30.1589 124.289 30.9427 124.289 31.8438V32.0078C124.289 32.8464 124.164 33.5781 123.914 34.2031C123.664 34.8229 123.299 35.3047 122.82 35.6484C122.341 35.9922 121.755 36.1641 121.062 36.1641ZM120.375 34.3906C120.958 34.3906 121.378 34.1849 121.633 33.7734C121.888 33.3568 122.016 32.7682 122.016 32.0078V31.8438C122.016 31.2917 121.958 30.8177 121.844 30.4219C121.734 30.0208 121.56 29.7109 121.32 29.4922C121.086 29.2734 120.779 29.1641 120.398 29.1641C120.055 29.1641 119.76 29.2448 119.516 29.4062C119.271 29.5677 119.078 29.7865 118.938 30.0625V33.5938C119.094 33.8542 119.292 34.0521 119.531 34.1875C119.776 34.3229 120.057 34.3906 120.375 34.3906ZM125.125 36V34.6328L126.227 34.3984V29.1562L125.008 28.9219V27.5469H128.508V34.3984L129.602 34.6328V36H125.125ZM126.148 25.7578V23.8125H128.508V25.7578H126.148ZM133.688 36.1641C132.901 36.1641 132.294 35.9479 131.867 35.5156C131.445 35.0833 131.234 34.3984 131.234 33.4609V29.1484H130.07V27.5469H131.234V25.4766H133.508V27.5469H135.062V29.1484H133.508V33.4531C133.508 33.7812 133.576 34.0156 133.711 34.1562C133.852 34.2969 134.042 34.3672 134.281 34.3672C134.406 34.3672 134.542 34.3594 134.688 34.3438C134.833 34.3229 134.958 34.3021 135.062 34.2812L135.258 35.9297C135.023 35.9974 134.768 36.0521 134.492 36.0938C134.221 36.1406 133.953 36.1641 133.688 36.1641Z" fill="#171738"/>
</g>
<defs>
<filter id="filter0_d" x="0" y="0" width="169" height="59" filterUnits="userSpaceOnUse" color-interpolation-filters="sRGB">
<feFlood flood-opacity="0" result="BackgroundImageFix"/>
<feColorMatrix in="SourceAlpha" type="matrix" values="0 0 0 0 0 0 0 0 0 0 0 0 0 0 0 0 0 0 127 0"/>
<feOffset/>
<feGaussianBlur stdDeviation="4"/>
<feColorMatrix type="matrix" values="0 0 0 0 0.368627 0 0 0 0 0.988235 0 0 0 0 0.552941 0 0 0 1 0"/>
<feBlend mode="normal" in2="BackgroundImageFix" result="effect1_dropShadow"/>
<feBlend mode="normal" in="SourceGraphic" in2="effect1_dropShadow" result="shape"/>
</filter>
</defs>
</svg>
